<svg viewBox="0 0 103 160" fill="none" xmlns="http://www.w3.org/2000/svg">
  <path fill-rule="evenodd" clip-rule="evenodd" d="M41.2353 25.4162C39.0402 23.9177 37.2683 21.8353 36.7412 19.1111C35.2225 11.2619 46.4952 10.0576 49.6414 13.3816C52.7876 16.7055 55.18 26.6344 52.6464 28.058C51.636 28.6257 49.1435 28.5661 46.4153 27.7913L50.6648 37.7463L41.949 40.0817L41.2353 25.4162Z" fill="#784931"/>
  <path fill-rule="evenodd" clip-rule="evenodd" d="M45.0641 10.0697C43.7767 10.0288 42.0151 10.37 41.31 10.6475C41.4604 9.55417 41.3313 8.41561 40.9119 7.38572C40.5043 6.385 39.8012 5.62834 39.1218 4.82005C38.8087 4.44749 38.4697 4.08435 38.0461 3.8487C37.6146 3.6086 37.1222 3.50573 36.6395 3.52306C36.1455 3.54076 35.6613 3.68005 35.2213 3.90201C35.0266 4.0002 34.8667 4.1432 34.6784 4.24932C34.4856 4.35802 34.3507 4.25648 34.1658 4.16766C33.7203 3.95366 33.1482 3.94238 32.6752 4.0102C32.1446 4.08633 31.6317 4.30613 31.1863 4.60501C30.7528 4.89596 30.3653 5.2836 30.1236 5.76182C30.016 5.9747 29.9289 6.20752 29.8961 6.4476C29.8826 6.54611 29.8905 6.60022 29.8101 6.65655C29.7357 6.70867 29.6395 6.73539 29.562 6.78677C28.8132 7.28349 28.2785 8.10216 28.1122 9.01392C28.0152 9.54583 28.132 10.4053 28.4106 11.329C28.6892 12.2527 30.1891 14.4559 31.2203 15.1298C32.1408 15.7313 33.3221 15.9744 34.3883 15.9337C33.9238 16.8682 33.7327 17.9315 33.6617 18.9799C33.5846 20.1188 33.6543 21.2619 33.8688 22.3883C34.0725 23.4584 34.3627 24.5701 34.8861 25.5305C35.3756 26.4287 36.0833 27.0835 37.0462 27.3612C37.4872 27.4885 37.9419 27.551 38.3949 27.5981C38.8413 27.6445 39.2879 27.6863 39.7354 27.6596C40.5823 27.6089 41.4997 27.3328 41.9484 26.5338C42.1101 26.2457 42.2784 25.8931 42.3662 25.5706C42.3978 25.4546 42.4155 25.3796 42.3182 25.3006C42.2016 25.206 42.0399 25.1529 41.906 25.0903C41.1422 24.7336 40.569 24.1377 40.2491 23.3328C39.9245 22.5162 39.8614 21.3667 40.5898 20.7772C41.489 20.0494 42.753 20.2695 43.7906 20.5124C43.8147 19.06 44.2811 17.6332 45.3567 16.6818C46.5467 15.6292 48.1012 15.1268 49.3552 14.1613C49.6819 13.9097 50.01 13.6356 50.1972 13.2511C50.2754 13.0905 50.3629 12.8858 50.3619 12.7013C50.3605 12.459 50.1623 12.3086 50.0012 12.1626C49.1469 11.3883 46.3515 10.1105 45.0641 10.0697Z" fill="#191847"/>
  <path fill-rule="evenodd" clip-rule="evenodd" d="M43.9367 70.4315L57.5675 118.081L67.5127 153.201H74.7664L64.1982 70.4315H43.9367Z" fill="#191847"/>
  <path fill-rule="evenodd" clip-rule="evenodd" d="M40.2914 70.4315C39.9761 94.9904 38.901 108.386 38.57 110.617C38.2389 112.848 33.2336 127.043 23.5538 153.201H31.0681C43.3911 128.107 50.2702 113.912 51.7052 110.617C53.1402 107.322 57.5689 93.9266 64.2392 70.4315H40.2914Z" fill="#2F3676"/>
  <path fill-rule="evenodd" clip-rule="evenodd" d="M22.8822 160L23.2582 152.105H31.1536C34.8974 154.736 39.785 156.867 45.8165 158.496V160H31.5296L26.642 159.248V160H22.8822Z" fill="#191847"/>
  <path fill-rule="evenodd" clip-rule="evenodd" d="M66.495 160L66.871 152.105H74.7664C78.5102 154.736 83.3978 156.867 89.4293 158.496V160H75.1424L70.2547 159.248V160H66.495Z" fill="#191847"/>
  <path fill-rule="evenodd" clip-rule="evenodd" d="M74.5827 60.5055L87.4222 67.9636C90.7479 68.4912 93.5636 69.2869 95.8693 70.3509C96.4307 70.7617 97.1489 71.6379 95.0057 71.6994C92.8626 71.7609 90.6109 71.9215 90.3931 72.6741C90.1754 73.4267 91.5524 74.1541 91.0614 75.1904C90.7341 75.8813 88.6958 74.4505 84.9466 70.898L72.6257 67.2695L74.5827 60.5055ZM23.2518 65.3496L29.9768 65.1409C25.6172 81.58 23.2605 90.2829 22.9068 91.2497C22.1109 93.425 24.0623 96.6254 24.9091 98.3524C22.3859 99.5848 22.5142 95.3488 19.3332 96.9606C16.4298 98.4318 14.2703 100.987 10.79 99.015C10.3621 98.7725 9.86974 97.8199 10.9534 97.0231C13.6531 95.0382 17.5235 91.5945 18.0246 90.4886C18.7078 88.9804 20.4502 80.6007 23.2518 65.3496Z" fill="#784931"/>
  <path fill-rule="evenodd" clip-rule="evenodd" d="M45.9706 33.914L49.7984 31.8603C57.7267 44.5906 68.2853 56.3986 83.9953 65.1749L81.6268 71.6049C68.3077 66.6575 55.9114 63.1758 49.4022 53.3758C47.2176 50.0867 46.5949 38.1973 45.9706 33.914Z" fill="#C5CFD6"/>
  <path fill-rule="evenodd" clip-rule="evenodd" d="M38.8134 74.9385C50.6703 74.1141 59.8326 72.4985 66.3001 70.0918C67.1014 69.7936 66.9888 68.391 66.4397 67.5223C57.8881 53.9954 51.5436 41.9954 49.7578 31.8674C48.7575 32.6114 46.8516 33.0326 44.0401 33.1308C38.5071 44.8681 37.2295 57.4412 38.8134 74.9385Z" fill="#323337"/>
  <path fill-rule="evenodd" clip-rule="evenodd" d="M42.0528 32.5792L45.1256 32.0374C46.5794 36.0985 58.8341 92.4021 69.0711 109.722L31.3767 116.369C29.1977 99.2327 32.0451 77.6847 35.5636 59.4528C30.7164 65.729 27.2545 75.5258 25.178 88.8431L17.7994 88.2846C19.08 64.8487 26.9562 46.4004 41.428 32.9398C41.449 32.8522 41.47 32.765 41.4908 32.6783L41.7628 32.6304C41.8516 32.5488 41.9406 32.4674 42.0299 32.3862L42.0528 32.5792Z" fill="#DDE3E9"/>
</svg>
