<?xml version="1.0" encoding="utf-8"?>
<!-- Generator: Adobe Illustrator 16.0.3, SVG Export Plug-In . SVG Version: 6.00 Build 0)  -->
<!DOCTYPE svg PUBLIC "-//W3C//DTD SVG 1.1//EN" "http://www.w3.org/Graphics/SVG/1.1/DTD/svg11.dtd">
<svg version="1.1" id="Layer_1" xmlns="http://www.w3.org/2000/svg" xmlns:xlink="http://www.w3.org/1999/xlink" x="0px" y="0px"
viewBox="0 0 182 161" enable-background="new 0 0 182 161" xml:space="preserve">
<g>
	<g id="XMLID_1_">
		<path fill="#FFFFFF" d="M75.78,90.08c0.74,0.26,1.64,0.5,2.73,0.76c-3.47,4.29-7.94,7.43-12.85,9.271
			C58.96,97.5,55.6,93.14,55.6,87.03c0-2.521,0.82-4.94,2.45-7.25c1.64-2.31,4.03-4.17,7.2-5.58c3.17-1.42,6.97-2.13,11.4-2.13
			c3.22,0,6.12,0.36,8.71,1.08c-0.2,3.9-1.16,7.79-2.91,11.47c-0.99-0.66-1.86-1.16-2.61-1.521c-0.83-0.39-1.89-0.58-3.19-0.58
			c-1.53,0-2.73,0.32-3.59,1.011c-0.86,0.67-1.3,1.529-1.3,2.58c0,0.92,0.26,1.68,0.79,2.26C73.07,88.96,74.15,89.53,75.78,90.08z"
			/>
		<path fill="#FFFFFF" d="M100.48,106.58c0,0.07,0,0.13,0,0.2c0,4.63-2.051,8.3-6.141,11.05c-4.1,2.729-9.84,4.1-17.22,4.1
			c-1.99,0-3.83-0.109-5.55-0.33c-0.44-3.64,0.27-7.42,2.25-10.8h0.02c1.01,0.47,2.24,0.7,3.65,0.7c1.67,0,3.03-0.33,4.11-0.97
			c1.07-0.641,1.61-1.561,1.61-2.721c0-0.979-0.3-1.79-0.87-2.409c-0.38-0.391-0.97-0.771-1.78-1.16
			c5.42-2.931,12.22-2.9,17.76,0.68C99.1,105.42,99.81,105.97,100.48,106.58z"/>
		<path fill="#00C853" d="M150.52,26.6c8.08,5.22,10.4,16.01,5.181,24.09s-16.01,10.4-24.09,5.18c-8.08-5.21-10.4-15.99-5.181-24.07
			C131.65,23.7,142.44,21.38,150.52,26.6z"/>
		<path fill="#2D8A5B" d="M135.41,73.6c0.399,0.4,0.59,0.9,0.59,1.52c0,0.98,0,1.97,0,2.95c0,0.62-0.19,1.11-0.59,1.48
			c-0.41,0.37-0.91,0.56-1.53,0.56c-3.81,0-7.63,0-11.439,0c0,8.03,0,16.07,0,24.09c0,3.14,0.5,5.51,1.52,7.12
			c1.021,1.6,2.76,2.399,5.22,2.399c1.87,0,3.75,0,5.63,0c0.62,0,1.11,0.2,1.48,0.601c0.37,0.39,0.55,0.899,0.55,1.52
			c0,1.021,0,2.03,0,3.05c0,0.61-0.18,1.12-0.55,1.511c-0.37,0.409-0.86,0.609-1.48,0.609c-2.1,0-4.189,0-6.279,0
			c-9.53,0-14.311-5.39-14.311-16.149c0-8.261,0-16.5,0-24.74c-2.43,0-4.859,0-7.3,0c-0.61,0-1.1-0.19-1.47-0.56
			s-0.55-0.87-0.55-1.48c0-0.98,0-1.97,0-2.95c0-0.62,0.18-1.13,0.55-1.52c0.359-0.4,0.859-0.6,1.47-0.6c2.44,0,4.87,0,7.3,0
			c0-5.14,0-10.28,0-15.43c0-0.61,0.181-1.12,0.55-1.51c0.37-0.41,0.86-0.61,1.48-0.61c1.35,0,2.71,0,4.06,0
			c0.61,0,1.141,0.2,1.53,0.61c0.4,0.39,0.601,0.9,0.601,1.51c0,5.15,0,10.29,0,15.43C126.25,73,130.07,73,133.88,73
			C134.5,73,135,73.21,135.41,73.6z"/>
		<path fill="#00C853" d="M100.48,106.58c6.31,5.59,7.739,15.12,3.02,22.42c-5.22,8.09-16,10.42-24.08,5.19
			c-4.53-2.921-7.27-7.61-7.85-12.591c1.72,0.221,3.56,0.33,5.55,0.33c7.38,0,13.12-1.37,17.22-4.1
			c4.09-2.75,6.141-6.42,6.141-11.05C100.48,106.71,100.48,106.65,100.48,106.58z"/>
		<path fill="#2D8A5B" d="M100.48,106.58c-0.671-0.61-1.381-1.16-2.16-1.66c-5.54-3.58-12.34-3.61-17.76-0.68
			c-0.45-0.221-0.97-0.431-1.56-0.63c-1.62-0.591-4.1-1.19-7.42-1.801c-2.2-0.449-4.17-1.02-5.92-1.699
			c4.91-1.841,9.38-4.98,12.85-9.271c1.31,0.33,2.89,0.65,4.7,0.99c6.03,1.05,10.42,2.91,13.16,5.59
			C99.06,100.04,100.43,103.09,100.48,106.58z"/>
		<path fill="#2D8A5B" d="M98.44,84.44c0,0.56-0.2,1.06-0.601,1.479c-0.39,0.44-0.87,0.64-1.43,0.64c-3.38,0-6.77,0-10.15,0
			c-0.56,0-1-0.119-1.3-0.35c-0.73-0.37-1.47-0.84-2.21-1.4c-0.11-0.06-0.21-0.13-0.3-0.189c1.75-3.68,2.71-7.57,2.91-11.47
			c1.04,0.26,2.02,0.6,2.97,1c3.29,1.39,5.81,3.05,7.53,4.99C97.58,81.08,98.44,82.85,98.44,84.44z"/>
		<path fill="#00C853" d="M71.39,45.78c9.56,6.17,14.53,16.78,13.97,27.37c-2.59-0.72-5.49-1.08-8.71-1.08
			c-4.43,0-8.23,0.71-11.4,2.13c-3.17,1.41-5.56,3.27-7.2,5.58c-1.63,2.31-2.45,4.73-2.45,7.25c0,6.109,3.36,10.47,10.06,13.08
			c-8.79,3.34-18.97,2.59-27.48-2.9c-14.2-9.16-18.29-28.12-9.12-42.32C38.24,40.68,57.19,36.61,71.39,45.78z"/>
		<path fill="#00C853" d="M80.51,88.11c-0.62,0.949-1.29,1.87-2,2.729c-1.09-0.26-1.99-0.5-2.73-0.76
			c-1.63-0.55-2.71-1.12-3.23-1.71c-0.53-0.58-0.79-1.34-0.79-2.26c0-1.051,0.44-1.91,1.3-2.58c0.86-0.69,2.06-1.011,3.59-1.011
			c1.3,0,2.36,0.19,3.19,0.58c0.75,0.36,1.62,0.86,2.61,1.521C81.89,85.81,81.25,86.97,80.51,88.11z"/>
		<path fill="#00C853" d="M81.6,110.53c-1.08,0.64-2.44,0.97-4.11,0.97c-1.41,0-2.64-0.23-3.65-0.7h-0.02
			c0.13-0.229,0.26-0.46,0.41-0.689c1.64-2.551,3.84-4.53,6.33-5.87c0.81,0.39,1.4,0.77,1.78,1.16c0.57,0.619,0.87,1.43,0.87,2.409
			C83.21,108.97,82.67,109.89,81.6,110.53z"/>
		<path fill="#2D8A5B" d="M73.82,110.8c-1.98,3.38-2.69,7.16-2.25,10.8c-2.67-0.34-5.03-0.93-7.1-1.79
			c-3.39-1.42-5.89-3.119-7.52-5.079c-1.64-1.971-2.45-3.761-2.45-5.351c0-0.63,0.24-1.13,0.69-1.53c0.46-0.399,0.97-0.6,1.53-0.6
			c3.72,0,7.44,0,11.17,0c0.37,0,0.67,0.12,0.92,0.37c1.05,0.68,1.62,1.08,1.75,1.2C71.73,109.68,72.81,110.34,73.82,110.8z"/>
	</g>
</g>
</svg>