<?xml version="1.0" encoding="utf-8"?>
<!-- Generator: Adobe Illustrator 16.0.3, SVG Export Plug-In . SVG Version: 6.00 Build 0)  -->
<!DOCTYPE svg PUBLIC "-//W3C//DTD SVG 1.1//EN" "http://www.w3.org/Graphics/SVG/1.1/DTD/svg11.dtd">
<svg version="1.1" id="Layer_1" xmlns="http://www.w3.org/2000/svg" xmlns:xlink="http://www.w3.org/1999/xlink" x="0px" y="0px"
viewBox="0 0 464 144" enable-background="new 0 0 464 144" xml:space="preserve">
<g id="Default">
	<g>
		<g>
			<circle fill="#2D8A5B" cx="178.133" cy="31.771" r="4.395"/>
			<circle fill="#2D8A5B" cx="164.965" cy="51.525" r="4.394"/>
			<circle fill="#2D8A5B" cx="156.37" cy="39.403" r="7.723"/>
		</g>
		<path fill="#2D8A5B" d="M86.727,104.816c-4.094,2.74-9.833,4.108-17.22,4.108c-5.043,0-9.257-0.708-12.641-2.125
			c-3.385-1.416-5.893-3.11-7.523-5.079c-1.631-1.972-2.446-3.756-2.446-5.353c-0.016-0.663,0.183-1.101,0.693-1.523
			c0.452-0.421,0.902-0.598,1.52-0.598c3.725,0,7.448,0,11.171,0c0.382-0.013,0.65,0.096,0.919,0.367
			c1.047,0.673,1.632,1.073,1.753,1.202c1.031,0.773,2.112,1.429,3.278,1.979c1.016,0.461,2.232,0.694,3.652,0.694
			c1.658,0,3.026-0.325,4.104-0.971c1.078-0.646,1.615-1.553,1.615-2.723c0-0.986-0.293-1.783-0.877-2.398
			c-0.584-0.616-1.691-1.217-3.322-1.799c-1.631-0.586-4.108-1.187-7.432-1.804C53.323,86.643,48,81.72,48,74.027
			c0-2.522,0.814-4.937,2.446-7.243c1.631-2.308,4.031-4.17,7.201-5.586c3.169-1.415,6.969-2.124,11.4-2.124
			c4.491,0,8.384,0.693,11.675,2.078c3.294,1.386,5.801,3.048,7.523,4.984c1.723,1.938,2.584,3.708,2.584,5.31
			c0.001,0.605-0.176,1.041-0.597,1.475c-0.404,0.459-0.819,0.647-1.432,0.647c-3.384,0-6.769,0-10.153,0
			c-0.556,0-0.987-0.123-1.294-0.369c-0.784-0.393-1.516-0.853-2.212-1.386c-0.933-0.638-1.897-1.203-2.909-1.706
			c-0.832-0.399-1.895-0.598-3.186-0.598c-1.536,0-2.736,0.339-3.6,1.015c-0.862,0.676-1.293,1.538-1.293,2.585
			c0,0.924,0.261,1.678,0.784,2.262c0.523,0.583,1.601,1.152,3.231,1.706c1.632,0.554,4.108,1.137,7.431,1.751
			c6.033,1.047,10.419,2.906,13.157,5.586c2.739,2.677,4.107,5.8,4.107,9.365C92.866,98.4,90.819,102.08,86.727,104.816z"/>
		<path fill="#2D8A5B" d="M137.156,105.878c-3.691,2.031-8.308,3.048-13.846,3.048c-7.018,0-12.696-1.861-17.036-5.586
			c-4.337-3.724-6.66-8.908-6.967-15.555c-0.03-1.23-0.062-2.465-0.092-3.697c0.03-1.26,0.062-2.521,0.092-3.781
			c0.245-6.646,2.553-11.848,6.921-15.602c4.37-3.754,10.064-5.631,17.082-5.631c5.354,0,9.847,0.955,13.476,2.863
			c3.629,1.908,6.337,4.171,8.121,6.787c1.784,2.616,2.738,5.002,2.866,7.153c0.086,0.732-0.098,1.216-0.646,1.705
			c-0.52,0.501-1.037,0.703-1.758,0.693c-4.121,0-8.243,0-12.365,0c-0.679,0-1.203-0.154-1.573-0.463
			c-0.37-0.311-0.708-0.802-1.014-1.476c-0.68-1.724-1.558-2.987-2.635-3.785c-1.077-0.798-2.445-1.199-4.104-1.199
			c-4.735,0-7.199,3.138-7.388,9.411c-0.03,1.17-0.061,2.342-0.092,3.516c0.031,1.013,0.062,2.025,0.092,3.039
			c0.065,3.201,0.714,5.553,1.945,7.063c1.229,1.508,3.044,2.264,5.442,2.264c1.786,0,3.187-0.385,4.2-1.153
			c1.014-0.769,1.859-2.046,2.539-3.832c0.306-0.679,0.644-1.171,1.014-1.476c0.37-0.308,0.895-0.463,1.573-0.463
			c4.122,0,8.244,0,12.365,0c0.674,0,1.169,0.193,1.666,0.648c0.53,0.433,0.741,0.882,0.738,1.564c0,1.909-0.847,4.201-2.538,6.881
			C143.543,101.493,140.851,103.848,137.156,105.878z"/>
		<path fill="#2D8A5B" d="M171.967,71.573c0,1.598,0,3.194,0,4.792c-0.902,0-1.805,0-2.707,0c-0.385,0-0.544,0.158-0.544,0.544
			c0,0.383,0.159,0.541,0.544,0.541c0.902,0,1.805,0,2.707,0c0,1.599,0,3.196,0,4.793c-0.902,0-1.805,0-2.707,0
			c-0.385,0-0.544,0.157-0.544,0.543c0,0.383,0.159,0.543,0.544,0.543c0.902,0,1.805,0,2.707,0c0,1.597,0,3.194,0,4.791
			c-0.902,0-1.805,0-2.707,0c-0.385,0-0.544,0.16-0.544,0.543c0,0.386,0.159,0.544,0.544,0.544c0.902,0,1.805,0,2.707,0
			c0,1.596,0,3.193,0,4.79c-0.902,0-1.805,0-2.707,0c-0.385,0-0.544,0.157-0.544,0.544c0,0.385,0.159,0.543,0.544,0.543
			c0.902,0,1.805,0,2.707,0c0,1.598,0,3.193,0,4.793c0,4.484-3.637,8.123-8.123,8.123c-4.487,0-8.124-3.639-8.124-8.123
			c0-11.757,0-23.512,0-35.267c-0.664,0.005-1.141-0.185-1.619-0.647c-0.515-0.478-0.714-0.957-0.692-1.658
			c-0.021-0.701,0.178-1.181,0.692-1.657c0.479-0.455,0.958-0.646,1.619-0.646c5.416,0,10.832,0,16.247,0
			c0.693-0.016,1.196,0.176,1.705,0.646c0.514,0.477,0.714,0.956,0.692,1.657c0.02,0.699-0.182,1.181-0.692,1.658
			c-0.508,0.475-1.01,0.664-1.705,0.647c-0.902,0-1.805,0-2.707,0c-0.385,0-0.544,0.159-0.544,0.542
			c0,0.385,0.159,0.544,0.544,0.544c0.902,0,1.805,0,2.707,0c0,1.597,0,3.194,0,4.792c-0.902,0-1.805,0-2.707,0
			c-0.385,0-0.544,0.158-0.544,0.541c0,0.386,0.159,0.544,0.544,0.544C170.162,71.573,171.064,71.573,171.967,71.573z"/>
		<path fill="#00C853" d="M396.834,108.926c-4.247,0-7.832-0.693-10.756-2.078c-2.924-1.387-5.092-2.971-6.508-4.756
			c-1.418-1.783-2.125-3.26-2.125-4.429c0-0.618,0.217-1.095,0.646-1.433c0.424-0.354,0.84-0.506,1.393-0.506
			c1.289,0,2.582,0,3.873,0c0.316-0.016,0.593,0.043,0.877,0.184c0.217,0.122,0.51,0.398,0.875,0.828
			c1.414,1.727,3,3.08,4.758,4.063c1.755,0.986,4.105,1.479,7.059,1.479c3.322,0,5.983-0.617,7.984-1.852
			c2.001-1.23,3.002-3.018,3.002-5.354c0-1.536-0.432-2.767-1.296-3.689c-0.862-0.925-2.29-1.755-4.289-2.493
			c-1.999-0.734-4.969-1.537-8.909-2.398c-5.354-1.17-9.141-2.862-11.355-5.078c-2.213-2.213-3.321-5.075-3.321-8.582
			c0-2.275,0.678-4.476,2.032-6.599c1.355-2.124,3.373-3.849,6.051-5.173c2.675-1.324,5.861-1.986,9.549-1.986
			c3.876,0,7.183,0.646,9.922,1.94c2.737,1.294,4.8,2.802,6.187,4.525c1.386,1.723,2.079,3.168,2.079,4.337
			c0.013,0.591-0.162,0.988-0.602,1.383c-0.424,0.399-0.847,0.563-1.43,0.554c-1.167,0-2.337,0-3.506,0
			c-0.862,0-1.479-0.339-1.854-1.019c-0.832-0.948-1.708-1.854-2.629-2.721c-0.708-0.646-1.736-1.199-3.088-1.661
			c-1.354-0.462-3.046-0.692-5.079-0.692c-3.014,0-5.322,0.631-6.924,1.895c-1.602,1.265-2.4,2.942-2.4,5.032
			c0,1.295,0.34,2.386,1.016,3.274c0.678,0.892,1.969,1.722,3.879,2.493c1.908,0.77,4.736,1.554,8.488,2.35
			c5.852,1.235,9.99,2.992,12.42,5.269s3.646,5.198,3.646,8.767c0.021,2.754-0.67,4.953-2.264,7.197
			c-1.509,2.154-3.754,3.848-6.737,5.079C404.51,108.309,400.957,108.926,396.834,108.926z"/>
		<path fill="#00C853" d="M326.866,108c-0.63,0.02-1.074-0.155-1.521-0.602c-0.443-0.445-0.619-0.892-0.6-1.521
			c0-14.586,0-29.172,0-43.757c-0.021-0.631,0.152-1.074,0.6-1.52c0.445-0.445,0.891-0.621,1.521-0.601c1.325,0,2.649,0,3.975,0
			c0.679,0,1.203,0.185,1.57,0.554c0.366,0.371,0.551,0.893,0.551,1.566c0,1.355,0,2.71,0,4.065
			c1.849-2.276,3.983-4.031,6.415-5.264s5.462-1.849,9.096-1.849c5.905,0,10.489,1.892,13.752,5.677
			c3.26,3.784,4.896,8.787,4.896,15.003c0,8.709,0,17.416,0,26.124c0.019,0.63-0.156,1.075-0.604,1.521
			c-0.445,0.443-0.891,0.619-1.521,0.602c-1.415,0-2.831,0-4.249,0c-0.633,0.023-1.076-0.15-1.523-0.602
			c-0.44-0.447-0.615-0.894-0.596-1.521c0-8.523,0-17.048,0-25.572c0-4.432-1.077-7.877-3.232-10.337
			c-2.152-2.46-5.23-3.69-9.233-3.69c-3.937,0-7.074,1.246-9.414,3.736c-2.34,2.491-3.509,5.921-3.509,10.291
			c0,8.524,0,17.049,0,25.572c0.023,0.63-0.15,1.075-0.598,1.521c-0.445,0.445-0.894,0.621-1.524,0.602
			C329.7,108,328.284,108,326.866,108z"/>
		<path fill="#00C853" d="M279.348,80.58c0-0.09,0-0.184,0-0.273c0-4.311,1.139-7.816,3.416-10.523
			c2.276-2.708,5.416-4.062,9.418-4.062c3.936,0,7.073,1.354,9.413,4.062c2.341,2.707,3.511,6.214,3.511,10.523
			c0,0.092,0,0.185,0,0.273C296.52,80.58,287.934,80.58,279.348,80.58z M302.657,106.848c3.046-1.387,5.397-3.033,7.061-4.938
			c1.66-1.907,2.492-3.538,2.492-4.897c0.011-0.541-0.16-0.88-0.603-1.197c-0.439-0.336-0.873-0.477-1.428-0.463
			c-1.354,0-2.711,0-4.063,0c-0.733,0-1.257,0.078-1.565,0.232c-0.309,0.156-0.74,0.602-1.298,1.338
			c-0.918,1.229-2.286,2.414-4.104,3.551c-1.815,1.141-4.17,1.709-7.059,1.709c-3.758,0-6.773-1.416-9.051-4.246
			s-3.508-6.242-3.691-10.238c0-0.279,0-0.559,0-0.836c10.678,0,21.354,0,32.028,0c0.632,0.021,1.079-0.155,1.528-0.602
			c0.445-0.447,0.621-0.888,0.6-1.52c0-0.557,0-1.109,0-1.662c0-7.387-1.863-13.232-5.585-17.541
			c-3.724-4.309-8.969-6.462-15.737-6.462c-6.278,0-11.297,1.969-15.051,5.906c-3.751,3.938-5.813,9.233-6.182,15.883
			c-0.03,1.015-0.061,2.026-0.092,3.042c0.031,1.045,0.062,2.091,0.092,3.138c0.369,6.769,2.431,12.106,6.182,16.019
			c3.754,3.91,8.771,5.864,15.051,5.864C296.116,108.926,299.609,108.232,302.657,106.848z"/>
		<path fill="#00C853" d="M227.764,80.58c0-0.09,0-0.184,0-0.273c0-4.311,1.14-7.816,3.416-10.523
			c2.276-2.708,5.416-4.062,9.417-4.062c3.936,0,7.073,1.354,9.414,4.062c2.34,2.707,3.51,6.214,3.51,10.523
			c0,0.092,0,0.185,0,0.273C244.938,80.58,236.352,80.58,227.764,80.58z M251.068,106.848c3.049-1.387,5.402-3.033,7.064-4.938
			c1.662-1.907,2.492-3.538,2.492-4.897c0.011-0.541-0.158-0.88-0.602-1.197c-0.438-0.336-0.873-0.477-1.428-0.463
			c-1.355,0-2.71,0-4.064,0c-0.735,0-1.26,0.078-1.565,0.232c-0.309,0.156-0.741,0.602-1.298,1.338
			c-0.92,1.229-2.288,2.414-4.104,3.551c-1.816,1.141-4.172,1.709-7.06,1.709c-3.758,0-6.772-1.416-9.051-4.246
			c-2.277-2.83-3.507-6.242-3.691-10.238c0-0.279,0-0.559,0-0.836c10.676,0,21.353,0,32.028,0c0.634,0.021,1.079-0.155,1.527-0.602
			c0.447-0.447,0.623-0.888,0.603-1.52c0-0.557,0-1.109,0-1.662c0-7.387-1.862-13.232-5.587-17.541
			c-3.723-4.309-8.969-6.462-15.738-6.462c-6.277,0-11.295,1.969-15.05,5.906c-3.754,3.938-5.813,9.233-6.182,15.883
			c-0.031,1.015-0.063,2.026-0.092,3.042c0.029,1.045,0.061,2.091,0.092,3.138c0.368,6.769,2.428,12.106,6.182,16.019
			c3.755,3.91,8.771,5.864,15.05,5.864C244.532,108.926,248.023,108.232,251.068,106.848z"/>
		<path fill="#00C853" d="M204.291,108c-9.535,0-14.303-5.387-14.303-16.156c0-8.244,0-16.49,0-24.738c-2.431,0-4.864,0-7.296,0
			c-0.612,0-1.104-0.184-1.475-0.552c-0.369-0.367-0.555-0.859-0.555-1.478c0-0.984,0-1.97,0-2.955
			c-0.021-0.615,0.143-1.063,0.555-1.52c0.37-0.4,0.862-0.601,1.475-0.601c2.432,0,4.865,0,7.296,0c0-5.139,0-10.276,0-15.413
			c0-0.617,0.186-1.127,0.553-1.527c0.366-0.4,0.858-0.601,1.478-0.601c1.352,0,2.704,0,4.058,0
			c0.635-0.024,1.078,0.149,1.527,0.601c0.446,0.449,0.622,0.895,0.601,1.527c0,5.137,0,10.274,0,15.413c3.816,0,7.632,0,11.448,0
			c0.63-0.021,1.072,0.153,1.519,0.601c0.446,0.446,0.623,0.89,0.603,1.52c0,0.985,0,1.971,0,2.955c0,0.618-0.2,1.11-0.603,1.478
			c-0.457,0.411-0.906,0.573-1.519,0.552c-3.816,0-7.632,0-11.448,0c0,8.033,0,16.063,0,24.095c0,3.14,0.509,5.508,1.523,7.109
			c1.016,1.599,2.754,2.4,5.215,2.4c1.876,0,3.751,0,5.628,0c0.616,0,1.111,0.198,1.478,0.598c0.369,0.396,0.552,0.904,0.552,1.521
			c0,1.018,0,2.033,0,3.048c0.021,0.613-0.142,1.063-0.552,1.521c-0.366,0.4-0.861,0.603-1.478,0.603
			C208.478,108,206.385,108,204.291,108z"/>
	</g>
</g>
</svg>