<svg viewBox="0 0 148 160" fill="none" xmlns="http://www.w3.org/2000/svg">
  <path fill-rule="evenodd" clip-rule="evenodd" d="M85.6567 17.5856C87.8774 14.979 89.3804 11.7845 89.1293 8.20503C88.4056 -2.10845 74.0489 0.160388 71.2562 5.36575C68.4636 10.5711 68.7954 23.7749 72.4047 24.7053C73.8441 25.0763 76.9104 24.1674 80.0312 22.2864L78.0723 36.1446H89.6386L85.6567 17.5856Z" fill="#B28B67"/>
  <path fill-rule="evenodd" clip-rule="evenodd" d="M82.0579 11.9841C82.4362 11.7242 82.8881 11.5663 83.3735 11.5663C84.7043 11.5663 85.7831 12.753 85.7831 13.9759C85.7831 15.2481 85.1824 16.2318 84.3244 16.6491C84.7826 17.545 85.2434 18.1952 85.7831 18.3133C87.866 18.1026 90.6024 12.9256 90.6024 8.6747C90.6024 4.02193 86.9003 0 80 0C73.798 0 71.4465 2.55721 71.3253 4.81928C73.983 5.54969 78.6269 5.83095 85.3012 5.78313V6.26506L79.5181 6.74699L78.5542 9.63855C80.0877 9.52408 81.1835 10.5759 82.0579 11.9841Z" fill="#191847"/>
  <path d="M94.4578 160C73.9634 160 57.3494 144.141 57.3494 124.578C57.3494 105.015 73.9634 89.1566 94.4578 89.1566C114.952 89.1566 131.566 105.015 131.566 124.578C131.566 144.141 114.952 160 94.4578 160Z" fill="#C5CFD6"/>
  <path fill-rule="evenodd" clip-rule="evenodd" d="M24.3329 154.535C30.5077 140.868 34.9733 128.968 36.7658 122.689C39.8349 111.939 42.1697 102.479 42.7598 98.9459C44.1671 90.5216 31.9348 90.031 30.318 94.2178C27.8708 100.555 23.5986 121.375 18.4653 152.823L24.3329 154.535ZM95.9574 111.645C90.292 109.406 70.4521 102.398 60.8833 100.415C58.1336 99.8454 55.4685 99.3161 52.9629 98.8377C45.5152 97.4159 41.6566 110.852 48.8296 111.884C66.6932 114.455 92.0179 117.11 94.1852 117.408C97.2227 117.826 99.518 113.052 95.9574 111.645Z" fill="#B28B67"/>
  <path fill-rule="evenodd" clip-rule="evenodd" d="M48.3917 95.1404L79.0361 79.5406V76.1446H75.3917C45.7446 83.6991 30.595 88.5406 29.9428 90.6688C29.9358 90.6917 29.9294 90.7147 29.9235 90.7376C29.9086 90.7572 29.8939 90.7769 29.8795 90.7967C24.0041 98.8771 20.4853 138.326 19.3304 141.28L30.589 142.96C34.8958 126.99 48.6747 115.864 48.3087 96.7369C48.4075 96.1758 48.4325 95.6437 48.3917 95.1404Z" fill="#1F28CF"/>
  <path fill-rule="evenodd" clip-rule="evenodd" d="M76.49 104.405C79.2939 103.844 81.876 103.343 84.0854 102.955C98.357 100.452 102.519 92.8127 100.058 76.1446H73.763C69.4677 77.3785 47.145 86.7397 35.5631 91.7187C27.8975 95.0141 30.314 106.894 34.655 109.985C34.6785 110.175 34.7567 110.304 34.8958 110.361C58.2473 120.04 76.7205 114.962 82.8916 116.584L85.746 107.58L76.49 104.405Z" fill="#2B44FF"/>
  <path fill-rule="evenodd" clip-rule="evenodd" d="M94.0204 110.214C95.5503 110.36 96.6364 110.59 97.2786 110.903C98.0597 111.284 99.1361 111.97 100.508 112.961C100.066 113.868 96.0939 122.011 88.5921 137.392C86.1836 137.003 85.2292 136.084 85.729 134.635C86.2288 133.185 86.6319 131.975 86.9383 131.005L87.4144 117.181C87.4235 116.915 87.6466 116.706 87.9126 116.716C87.9172 116.716 87.9217 116.716 87.9263 116.716L90.0528 116.85C91.2612 115.872 92.0585 114.987 92.4446 114.195C92.7583 113.552 92.9318 112.537 92.965 111.15L92.965 111.15C92.9777 110.618 93.4195 110.197 93.9517 110.21C93.9746 110.21 93.9975 110.212 94.0204 110.214Z" fill="#E4E4E4"/>
  <path fill-rule="evenodd" clip-rule="evenodd" d="M27.1431 152.001C27.6822 153.44 27.9518 154.517 27.9518 155.232C27.9518 156.101 27.807 157.369 27.5175 159.036C26.5093 159.036 17.4488 159.036 0.335884 159.036C-0.37047 156.701 0.0372772 155.44 1.55913 155.254C3.08098 155.068 4.3452 154.9 5.35181 154.75L17.9856 149.118C18.2287 149.009 18.5136 149.118 18.622 149.361C18.6238 149.366 18.6256 149.37 18.6273 149.374L19.4394 151.344C20.8483 152.001 21.9931 152.33 22.8739 152.33C23.5895 152.33 24.5778 152.041 25.8388 151.463L25.8388 151.463C26.3227 151.241 26.8948 151.453 27.1167 151.937C27.1262 151.958 27.135 151.979 27.1431 152.001Z" fill="#E4E4E4"/>
  <path fill-rule="evenodd" clip-rule="evenodd" d="M50.1737 66.5694L34.801 77.8579C30.6317 78.9829 27.1483 80.3827 24.3509 82.0571C23.6901 82.6593 22.8915 83.8787 25.6319 83.6679C28.3724 83.4572 31.2644 83.3587 31.6426 84.2935C32.0207 85.2282 30.3623 86.346 31.1267 87.6072C31.6363 88.448 34.0437 86.3398 38.349 81.2824L53.572 74.9699L50.1737 66.5694ZM119.74 61.8675L111.253 63.4043C121.103 82.9517 126.379 93.2872 127.081 94.4107C128.659 96.9387 127.066 101.494 126.465 103.896C129.957 104.774 128.666 99.4708 133.084 100.65C137.117 101.727 140.506 104.369 144.344 100.953C144.815 100.533 145.179 99.2007 143.608 98.4867C139.693 96.708 133.922 93.4046 132.999 92.1451C131.74 90.4275 127.32 80.335 119.74 61.8675Z" fill="#B28B67"/>
  <path fill-rule="evenodd" clip-rule="evenodd" d="M46.5926 67.7966C44.6147 67.6546 42.4632 67.9822 40.1566 68.7594C39.0216 69.1419 38.4115 70.372 38.7939 71.507C39.016 72.1663 39.5241 72.6484 40.1334 72.8619C39.692 73.1839 39.2467 73.5041 38.7975 73.8225L42.6757 81.7396C58.9952 73.6027 74.3339 67.4679 81.3234 54.0345C83.6693 49.5259 82.8753 34.2112 83.0992 28.6398L77.945 26.526C70.7602 41.3775 61.0366 55.6257 46.5926 67.7966Z" fill="#69A1AC"/>
  <path fill-rule="evenodd" clip-rule="evenodd" d="M101.205 80.4384C86.0538 82.1029 74.1283 82.1029 65.4283 80.4384C64.3504 80.2322 64.3978 75.5857 64.8976 74.3167C72.6818 54.5551 77.8023 40.0887 77.8023 26.3627C79.2306 27.1088 81.7302 27.2206 85.3012 26.6981C94.8982 40.8432 99.3096 57.073 101.205 80.4384Z" fill="#191847"/>
  <path fill-rule="evenodd" clip-rule="evenodd" d="M104.02 82.7748C104.535 82.2907 104.803 81.565 104.671 80.8172L104.42 79.3934C104.25 78.4286 103.466 77.7259 102.541 77.616C102.379 76.893 102.24 76.1748 102.124 75.4619C101.152 69.4397 102.814 63.5347 102.736 57.736C110.485 64.3477 117.437 75.7644 123.591 91.986L132.693 89.3077C132.346 88.0175 131.986 86.7431 131.614 85.4845C132.665 84.8877 133.892 82.1523 133.009 81.6945C132.096 81.2218 131.13 80.8891 130.112 80.6932C121.766 55.5562 108.118 37.1725 89.1683 25.5422H87.4918L83.6875 25.5422C85.3012 46.8823 63.0122 93.4722 70.7515 133.262C85.0564 136.456 105.479 126.517 125.358 134.458C124.618 118.434 109.801 99.61 104.02 82.7748V82.7748Z" fill="#89C5CC"/>
  <path fill-rule="evenodd" clip-rule="evenodd" d="M87.178 26.0241L89.6643 33.6701L84.6574 39.4019L89.1824 43.9063L78.2351 62.6506L91.6224 43.9437L87.178 39.4019L91.6224 34.3366L87.178 26.0241Z" fill="black" fill-opacity="0.1"/>
  <path fill-rule="evenodd" clip-rule="evenodd" d="M81.4458 69.8795C82.5104 69.8795 83.3735 69.0165 83.3735 67.9518C83.3735 66.8872 82.5104 66.0241 81.4458 66.0241C80.3811 66.0241 79.5181 66.8872 79.5181 67.9518C79.5181 69.0165 80.3811 69.8795 81.4458 69.8795ZM79.0361 80.9639C80.1008 80.9639 80.9639 80.1008 80.9639 79.0361C80.9639 77.9715 80.1008 77.1084 79.0361 77.1084C77.9715 77.1084 77.1084 77.9715 77.1084 79.0361C77.1084 80.1008 77.9715 80.9639 79.0361 80.9639ZM78.5542 92.0482C79.6189 92.0482 80.4819 91.1851 80.4819 90.1205C80.4819 89.0558 79.6189 88.1928 78.5542 88.1928C77.4896 88.1928 76.6265 89.0558 76.6265 90.1205C76.6265 91.1851 77.4896 92.0482 78.5542 92.0482Z" fill="black" fill-opacity="0.4"/>
</svg>
