<?xml version="1.0" encoding="UTF-8" standalone="no"?><svg xmlns="http://www.w3.org/2000/svg" xmlns:xlink="http://www.w3.org/1999/xlink" viewBox="0 0 48 48" version="1.1"><title>Facebook-black</title><g id="Icons" stroke="none" stroke-width="1" fill="#4A5568" fill-rule="evenodd"><g id="Black" transform="translate(-200.000000, -160.000000)" fill="#4A5568"><path d="M225.638 208H202.65a2.65 2.65 0 0 1-2.649-2.65v-42.7a2.649 2.649 0 0 1 2.65-2.65h42.701a2.649 2.649 0 0 1 2.649 2.65v42.7a2.65 2.65 0 0 1-2.649 2.65h-12.232v-18.588h6.24l.934-7.244h-7.174v-4.625c0-2.098.583-3.527 3.59-3.527l3.836-.002v-6.479c-.663-.088-2.94-.285-5.59-.285-5.53 0-9.317 3.376-9.317 9.575v5.343h-6.255v7.244h6.255V208z" id="Facebook"/></g></g><metadata><rdf:RDF xmlns:rdf="http://www.w3.org/1999/02/22-rdf-syntax-ns#" xmlns:rdfs="http://www.w3.org/2000/01/rdf-schema#" xmlns:dc="http://purl.org/dc/elements/1.1/"><rdf:Description about="https://iconscout.com/legal#licenses" dc:title="facebook,black" dc:description="facebook,black" dc:publisher="Iconscout" dc:date="2017-09-14" dc:format="image/svg+xml" dc:language="en"><dc:creator><rdf:Bag><rdf:li>Alexis Doreau</rdf:li></rdf:Bag></dc:creator></rdf:Description></rdf:RDF></metadata></svg>