<?xml version="1.0" encoding="UTF-8" standalone="no"?><svg xmlns="http://www.w3.org/2000/svg" xmlns:xlink="http://www.w3.org/1999/xlink" viewBox="0 0 48 48" version="1.1"><title>Instagram-black</title><g id="Icons" stroke="none" stroke-width="1" fill-rule="evenodd"><g id="Black" transform="translate(-500.000000, -160.000000)" fill="#F3F4F6"><path d="M524 160c-6.518 0-7.335.028-9.895.144-2.555.117-4.3.523-5.826 1.116-1.578.613-2.917 1.434-4.25 2.768-1.335 1.334-2.156 2.673-2.769 4.251-.593 1.527-1 3.271-1.116 5.826-.116 2.56-.144 3.377-.144 9.895s.028 7.335.144 9.895c.117 2.555.523 4.3 1.116 5.826.613 1.578 1.434 2.917 2.768 4.25 1.334 1.335 2.673 2.156 4.251 2.77 1.527.592 3.271.998 5.826 1.115 2.56.116 3.377.144 9.895.144s7.335-.028 9.895-.144c2.555-.117 4.3-.523 5.826-1.116 1.578-.613 2.917-1.434 4.25-2.768 1.335-1.334 2.156-2.673 2.77-4.251.592-1.527.998-3.271 1.115-5.826.116-2.56.144-3.377.144-9.895s-.028-7.335-.144-9.895c-.117-2.555-.523-4.3-1.116-5.826-.613-1.578-1.434-2.917-2.768-4.25-1.334-1.335-2.673-2.156-4.251-2.769-1.527-.593-3.271-1-5.826-1.116-2.56-.116-3.377-.144-9.895-.144zm0 4.324c6.408 0 7.167.025 9.698.14 2.34.107 3.61.498 4.457.827 1.12.435 1.92.955 2.76 1.795.839.84 1.359 1.64 1.794 2.76.33.845.72 2.116.827 4.456.115 2.53.14 3.29.14 9.698s-.025 7.167-.14 9.698c-.107 2.34-.498 3.61-.827 4.457-.435 1.12-.955 1.92-1.795 2.76-.84.839-1.64 1.359-2.76 1.794-.845.33-2.116.72-4.456.827-2.53.115-3.29.14-9.698.14-6.409 0-7.168-.025-9.698-.14-2.34-.107-3.61-.498-4.457-.827-1.12-.435-1.92-.955-2.76-1.795-.839-.84-1.359-1.64-1.794-2.76-.33-.845-.72-2.116-.827-4.456-.115-2.53-.14-3.29-.14-9.698s.025-7.167.14-9.698c.107-2.34.498-3.61.827-4.457.435-1.12.955-1.92 1.795-2.76.84-.839 1.64-1.359 2.76-1.794.845-.33 2.116-.72 4.456-.827 2.53-.115 3.29-.14 9.698-.14zm0 7.352c-6.807 0-12.324 5.517-12.324 12.324 0 6.807 5.517 12.324 12.324 12.324 6.807 0 12.324-5.517 12.324-12.324 0-6.807-5.517-12.324-12.324-12.324zM524 192a8 8 0 1 1 0-16 8 8 0 0 1 0 16zm15.691-20.811a2.88 2.88 0 1 1-5.76 0 2.88 2.88 0 0 1 5.76 0z" id="Instagram"/></g></g><metadata><rdf:RDF xmlns:rdf="http://www.w3.org/1999/02/22-rdf-syntax-ns#" xmlns:rdfs="http://www.w3.org/2000/01/rdf-schema#" xmlns:dc="http://purl.org/dc/elements/1.1/"><rdf:Description about="https://iconscout.com/legal#licenses" dc:title="instagram,black" dc:description="instagram,black" dc:publisher="Iconscout" dc:date="2017-09-14" dc:format="image/svg+xml" dc:language="en"><dc:creator><rdf:Bag><rdf:li>Alexis Doreau</rdf:li></rdf:Bag></dc:creator></rdf:Description></rdf:RDF></metadata></svg>