<?xml version="1.0" encoding="UTF-8" standalone="no"?><svg xmlns="http://www.w3.org/2000/svg" xmlns:xlink="http://www.w3.org/1999/xlink" viewBox="0 0 44 40" version="1.1"><title>LinkedIn-black</title><g id="Icons" stroke="none" stroke-width="1" fill="#4A5568" fill-rule="evenodd"><g id="Black" transform="translate(-702.000000, -265.000000)" fill="#F3F4F6"><path d="M746 305h-9.725v-14.062c0-3.68-1.52-6.193-4.866-6.193-2.558 0-3.981 1.696-4.643 3.33-.249.586-.21 1.403-.21 2.22V305h-9.634s.124-24.909 0-27.173h9.634v4.265c.57-1.865 3.648-4.526 8.56-4.526 6.095 0 10.884 3.908 10.884 12.325V305zm-38.82-30.572h-.063c-3.104 0-5.117-2.077-5.117-4.71 0-2.684 2.072-4.718 5.239-4.718 3.164 0 5.11 2.029 5.171 4.71 0 2.633-2.007 4.718-5.23 4.718zm-4.07 3.399h8.576V305h-8.576v-27.173z" id="LinkedIn"/></g></g><metadata><rdf:RDF xmlns:rdf="http://www.w3.org/1999/02/22-rdf-syntax-ns#" xmlns:rdfs="http://www.w3.org/2000/01/rdf-schema#" xmlns:dc="http://purl.org/dc/elements/1.1/"><rdf:Description about="https://iconscout.com/legal#licenses" dc:title="linkedin,black" dc:description="linkedin,black" dc:publisher="Iconscout" dc:date="2017-09-14" dc:format="image/svg+xml" dc:language="en"><dc:creator><rdf:Bag><rdf:li>Alexis Doreau</rdf:li></rdf:Bag></dc:creator></rdf:Description></rdf:RDF></metadata></svg>