<svg id="SvgjsSvg1001" width="288" height="288" xmlns="http://www.w3.org/2000/svg" version="1.1" xmlns:xlink="http://www.w3.org/1999/xlink" xmlns:svgjs="http://svgjs.com/svgjs"><defs id="SvgjsDefs1002"></defs><g id="SvgjsG1008" transform="matrix(0.9167,0,0,0.9167,11.995200000000011,11.99520985069276)"><svg xmlns="http://www.w3.org/2000/svg" viewBox="2 2 20 16" width="288" height="288"><path fill="#F3F4F6" d="M18.16,4.51a37.7,37.7,0,0,0-12.36,0C3.46,5,2,6.51,2,8.48v7c0,2,1.46,3.49,3.84,4A37.47,37.47,0,0,0,12,20a37.8,37.8,0,0,0,6.18-.51c2.32-.44,3.82-2,3.82-4v-7C22,6.5,20.5,4.94,18.16,4.51Zm-2.9,7.94-5,3a.48.48,0,0,1-.26.07.57.57,0,0,1-.25-.06A.52.52,0,0,1,9.5,15V9a.52.52,0,0,1,.25-.44.54.54,0,0,1,.51,0l5,3a.51.51,0,0,1,0,.86Z" class="color464646 svgShape"></path></svg></g></svg>