<?xml version="1.0"?>
<svg xmlns="http://www.w3.org/2000/svg" xmlns:xlink="http://www.w3.org/1999/xlink" style="enable-background:new 0 0 128 128;" version="1.1" viewBox="0 0 128 128" xml:space="preserve"><g/><g/><g/><g/><g/><g/><g/><g/><g/><g/><g/><g/><g><g><g><g><path d="M57,89h-4V58.523c0-1.794,1.207-3.38,2.936-3.856l21.023-5.528      c1.192-0.326,2.464-0.082,3.465,0.68C81.426,50.582,82,51.741,82,53.001v30.374h-4V53.001l-21.023,5.528L57,89z" style="fill:#00B8DF;"/></g><g><ellipse cx="47.5" cy="89" rx="7.5" ry="5" style="fill:#00B8DF;"/><path d="M47.5,96c-5.327,0-9.5-3.075-9.5-7s4.173-7,9.5-7s9.5,3.075,9.5,7S52.827,96,47.5,96z M47.5,86      c-3.147,0-5.5,1.584-5.5,3s2.353,3,5.5,3s5.5-1.584,5.5-3S50.647,86,47.5,86z" style="fill:#00B8DF;"/></g><g><ellipse cx="72.5" cy="83.375" rx="7.5" ry="5.375" style="fill:#00B8DF;"/><path d="M72.5,90.749c-5.327,0-9.5-3.239-9.5-7.374C63,79.239,67.173,76,72.5,76s9.5,3.239,9.5,7.375      C82,87.51,77.827,90.749,72.5,90.749z M72.5,80c-2.93,0-5.5,1.577-5.5,3.375c0,1.596,2.259,3.374,5.5,3.374s5.5-1.778,5.5-3.374      C78,81.577,75.43,80,72.5,80z" style="fill:#00B8DF;"/></g></g><g><g><path d="M104,80c-13.255,0-24,10.745-24,24s10.745,24,24,24s24-10.745,24-24S117.255,80,104,80z       M114.882,96.988l-0.113,0.176l-8.232,11.438C105.989,109.468,105.029,110,104,110s-1.989-0.532-2.536-1.397l-8.346-11.614      c-0.529-0.926-0.524-2.073,0.01-2.994c0.535-0.922,1.53-1.494,2.596-1.494H100V86c0-1.654,1.346-3,3-3h2c1.654,0,3,1.346,3,3      v6.5h4.276c1.065,0,2.061,0.572,2.596,1.494C115.406,94.915,115.411,96.063,114.882,96.988z" style="fill:#00B8DF;"/></g><g><g><polygon points="84,125.95 83.95,126 84,126      " style="fill:#FF9A30;"/></g><g><polygon points="114,77 114,76.95 113.95,77      " style="fill:#FF9A30;"/></g><g><path d="M111.071,44.243L71.757,4.929C69.869,3.041,67.357,2,64.687,2H24c-5.514,0-10,4.486-10,10v104       c0,5.514,4.486,10,10,10h59.95l-4-4H24c-3.309,0-6-2.691-6-6V12c0-3.309,2.691-6,6-6h40.687c1.603,0,3.109,0.624,4.242,1.757       l39.314,39.314c1.116,1.117,1.757,2.663,1.757,4.242V72.95l4,4V51.313C114,48.643,112.96,46.132,111.071,44.243z" style="fill:#00B8DF;"/></g><g><polyline points="113.95,77 114,76.95 110,72.95      " style="fill:#FFFFFF;"/></g></g></g></g></g><g/><g/><g/><g/><g/><g/><g/><g/><g/><g/>
	
	<metadata>
		<rdf:RDF xmlns:rdf="http://www.w3.org/1999/02/22-rdf-syntax-ns#" xmlns:rdfs="http://www.w3.org/2000/01/rdf-schema#" xmlns:dc="http://purl.org/dc/elements/1.1/">
			<rdf:Description about="https://iconscout.com/legal#licenses" dc:title="File, Music, Download, Audio, Mp3, Sound" dc:description="File, Music, Download, Audio, Mp3, Sound" dc:publisher="Iconscout" dc:date="2016-12-14" dc:format="image/svg+xml" dc:language="en">
				<dc:creator>
					<rdf:Bag>
						<rdf:li>Igor Verizub</rdf:li>
					</rdf:Bag>
				</dc:creator>
			</rdf:Description>
		</rdf:RDF>
    </metadata></svg>
