<?xml version="1.0"?>
<svg xmlns="http://www.w3.org/2000/svg" xmlns:xlink="http://www.w3.org/1999/xlink" style="enable-background:new 0 0 128 128;" version="1.1" viewBox="0 0 128 128" xml:space="preserve"><g/><g/><g/><g/><g/><g/><g/><g/><g><g><g><path d="M62.984,75.422c0,3.688-1.152,6.508-3.457,8.461s-5.582,2.93-9.832,2.93h-3.117V99h-7.266V64.734     h10.945c4.156,0,7.316,0.895,9.48,2.684S62.984,71.875,62.984,75.422z M46.578,80.859h2.391c2.234,0,3.906-0.441,5.016-1.324     s1.664-2.168,1.664-3.855c0-1.703-0.465-2.961-1.395-3.773s-2.387-1.219-4.371-1.219h-3.305V80.859z" style="fill:#00B8DF;"/><path d="M87.172,91.219c0,2.688-0.934,4.734-2.801,6.141s-4.66,2.109-8.379,2.109     c-1.906,0-3.531-0.129-4.875-0.387s-2.602-0.637-3.773-1.137v-5.906c1.328,0.625,2.824,1.148,4.488,1.57s3.129,0.633,4.395,0.633     c2.594,0,3.891-0.75,3.891-2.25c0-0.563-0.172-1.02-0.516-1.371s-0.938-0.75-1.781-1.195s-1.969-0.965-3.375-1.559     c-2.016-0.844-3.496-1.625-4.441-2.344s-1.633-1.543-2.063-2.473s-0.645-2.074-0.645-3.434c0-2.328,0.902-4.129,2.707-5.402     s4.363-1.91,7.676-1.91c3.156,0,6.227,0.688,9.211,2.063l-2.156,5.156c-1.313-0.563-2.539-1.023-3.68-1.383     s-2.305-0.539-3.492-0.539c-2.109,0-3.164,0.57-3.164,1.711c0,0.641,0.34,1.195,1.02,1.664s2.168,1.164,4.465,2.086     c2.047,0.828,3.547,1.602,4.5,2.32s1.656,1.547,2.109,2.484S87.172,89.922,87.172,91.219z" style="fill:#00B8DF;"/></g><g><g><path d="M104,80c-13.255,0-24,10.745-24,24s10.745,24,24,24s24-10.745,24-24S117.255,80,104,80z       M114.882,96.988l-0.113,0.176l-8.232,11.438C105.989,109.468,105.029,110,104,110s-1.989-0.532-2.536-1.397l-8.346-11.614      c-0.529-0.926-0.524-2.073,0.01-2.994c0.535-0.922,1.53-1.494,2.596-1.494H100V86c0-1.654,1.346-3,3-3h2c1.654,0,3,1.346,3,3      v6.5h4.276c1.065,0,2.061,0.572,2.596,1.494C115.406,94.915,115.411,96.063,114.882,96.988z" style="fill:#00B8DF;"/></g><g><g><polygon points="84,125.95 83.95,126 84,126      " style="fill:#FF9A30;"/></g><g><polygon points="114,77 114,76.95 113.95,77      " style="fill:#FF9A30;"/></g><g><path d="M111.071,44.243L71.757,4.929C69.869,3.041,67.357,2,64.687,2H24c-5.514,0-10,4.486-10,10v104       c0,5.514,4.486,10,10,10h59.95l-4-4H24c-3.309,0-6-2.691-6-6V12c0-3.309,2.691-6,6-6h40.687c1.603,0,3.109,0.624,4.242,1.757       l39.314,39.314c1.116,1.117,1.757,2.663,1.757,4.242V72.95l4,4V51.313C114,48.643,112.96,46.132,111.071,44.243z" style="fill:#00B8DF;"/></g><g><polyline points="113.95,77 114,76.95 110,72.95      " style="fill:#FFFFFF;"/></g></g></g></g></g><g/><g/><g/><g/><g/><g/><g/><g/><g/><g/><g/><g/><g/><g/>
	
	<metadata>
		<rdf:RDF xmlns:rdf="http://www.w3.org/1999/02/22-rdf-syntax-ns#" xmlns:rdfs="http://www.w3.org/2000/01/rdf-schema#" xmlns:dc="http://purl.org/dc/elements/1.1/">
			<rdf:Description about="https://iconscout.com/legal#licenses" dc:title="File, Ps, Download, Adobe, Design, Document, Photoshop, Psd, Tool" dc:description="File, Ps, Download, Adobe, Design, Document, Photoshop, Psd, Tool" dc:publisher="Iconscout" dc:date="2016-12-14" dc:format="image/svg+xml" dc:language="en">
				<dc:creator>
					<rdf:Bag>
						<rdf:li>Igor Verizub</rdf:li>
					</rdf:Bag>
				</dc:creator>
			</rdf:Description>
		</rdf:RDF>
    </metadata></svg>
