<?xml version="1.0"?>
<svg xmlns="http://www.w3.org/2000/svg" xmlns:xlink="http://www.w3.org/1999/xlink" style="enable-background:new 0 0 128 128;" version="1.1" viewBox="0 0 128 128" xml:space="preserve"><style type="text/css">
	.st0{fill:#00B8DF;}
	.st1{fill:#FF9A30;}
	.st2{fill:#FFFFFF;}
	.st3{fill:#61BEE2;}
	.st4{fill:#FD4233;}
	.st5{fill:#FF402F;}
	.st6{fill:#1D409D;}
	.st7{fill:#007732;}
	.st8{fill:#FF5A29;}
</style><g/><g/><g/><g/><g/><g/><g/><g/><g/><g/><g/><g/><g/><g/><g/><g><g><g><path d="M104,126H24c-5.5,0-10-4.5-10-10V12c0-5.5,4.5-10,10-10h40.7c2.7,0,5.2,1,7.1,2.9l39.3,39.3     c1.9,1.9,2.9,4.4,2.9,7.1V116C114,121.5,109.5,126,104,126z M24,6c-3.3,0-6,2.7-6,6v104c0,3.3,2.7,6,6,6h80c3.3,0,6-2.7,6-6V51.3     c0-1.6-0.6-3.1-1.8-4.2L68.9,7.8C67.8,6.6,66.3,6,64.7,6H24z" style="fill: #1D409D;"/></g><g><path d="M78.7,96h-8.3l-4.6-18c-0.2-0.6-0.5-2-0.9-4s-0.7-3.4-0.7-4c-0.1,0.8-0.3,2.2-0.7,4.1s-0.7,3.2-0.9,4L58,96     h-8.3L41,61.7h7.1l4.4,18.7c0.8,3.5,1.3,6.4,1.7,9c0.1-0.9,0.3-2.3,0.6-4.1s0.7-3.3,0.9-4.3l5-19.2h6.9l5,19.2     c0.2,0.9,0.5,2.2,0.8,3.9s0.6,3.3,0.8,4.5c0.2-1.2,0.4-2.7,0.8-4.6s0.7-3.3,0.9-4.4l4.4-18.7h7.1L78.7,96z" style="fill: #1D409D;"/></g></g></g><g/><g/><g/><g/><g/><g/><g/>
	
	<metadata>
		<rdf:RDF xmlns:rdf="http://www.w3.org/1999/02/22-rdf-syntax-ns#" xmlns:rdfs="http://www.w3.org/2000/01/rdf-schema#" xmlns:dc="http://purl.org/dc/elements/1.1/">
			<rdf:Description about="https://iconscout.com/legal#licenses" dc:title="File, Document, Docx, Text, Type, Word, Writing" dc:description="File, Document, Docx, Text, Type, Word, Writing" dc:publisher="Iconscout" dc:date="2016-12-14" dc:format="image/svg+xml" dc:language="en">
				<dc:creator>
					<rdf:Bag>
						<rdf:li>Igor Verizub</rdf:li>
					</rdf:Bag>
				</dc:creator>
			</rdf:Description>
		</rdf:RDF>
    </metadata></svg>
