<?xml version="1.0"?>
<svg xmlns="http://www.w3.org/2000/svg" xmlns:xlink="http://www.w3.org/1999/xlink" style="enable-background:new 0 0 128 128;" version="1.1" viewBox="0 0 128 128" xml:space="preserve"><style type="text/css">
	.st0{fill:#00B8DF;}
	.st1{fill:#FF9A30;}
	.st2{fill:#FFFFFF;}
	.st3{fill:#61BEE2;}
	.st4{fill:#FD4233;}
	.st5{fill:#FF402F;}
	.st6{fill:#1D409D;}
	.st7{fill:#007732;}
	.st8{fill:#FF5A29;}
</style><g/><g/><g/><g/><g><g><g><path d="M104,126H24c-5.5,0-10-4.5-10-10V12c0-5.5,4.5-10,10-10h40.7c2.7,0,5.2,1,7.1,2.9l39.3,39.3     c1.9,1.9,2.9,4.4,2.9,7.1V116C114,121.5,109.5,126,104,126z M24,6c-3.3,0-6,2.7-6,6v104c0,3.3,2.7,6,6,6h80c3.3,0,6-2.7,6-6V51.3     c0-1.6-0.6-3.1-1.8-4.2L68.9,7.8C67.8,6.6,66.3,6,64.7,6H24z" style="fill: #61BEE2;"/></g><g><path d="M62,96c-1.3,0-2.6-0.4-3.7-1.2L37.3,78.5c-0.7-0.6-1.7-0.6-2.5,0l-17.5,14l-2.5-3.1l17.5-14     c2.2-1.7,5.2-1.8,7.4-0.1l21.1,16.2c0.7,0.5,1.7,0.6,2.4,0l24.4-18.5c2-1.5,4.7-1.6,6.8-0.3l18.7,11.6l-2.1,3.4L92.3,76.1     c-0.7-0.4-1.6-0.4-2.3,0.1L65.6,94.7C64.6,95.6,63.3,96,62,96z" style="fill: #61BEE2;"/></g><g><path d="M53,58c-7.2,0-13-5.8-13-13s5.8-13,13-13s13,5.8,13,13S60.2,58,53,58z M53,36c-5,0-9,4-9,9s4,9,9,9s9-4,9-9     S58,36,53,36z" style="fill: #61BEE2;"/></g></g></g><g/><g/><g/><g/><g/><g/><g/><g/><g/><g/><g/><g/><g/><g/><g/><g/><g/><g/>
	
	<metadata>
		<rdf:RDF xmlns:rdf="http://www.w3.org/1999/02/22-rdf-syntax-ns#" xmlns:rdfs="http://www.w3.org/2000/01/rdf-schema#" xmlns:dc="http://purl.org/dc/elements/1.1/">
			<rdf:Description about="https://iconscout.com/legal#licenses" dc:title="File, Document, Image, Photo, Photography, Picture" dc:description="File, Document, Image, Photo, Photography, Picture" dc:publisher="Iconscout" dc:date="2016-12-14" dc:format="image/svg+xml" dc:language="en">
				<dc:creator>
					<rdf:Bag>
						<rdf:li>Igor Verizub</rdf:li>
					</rdf:Bag>
				</dc:creator>
			</rdf:Description>
		</rdf:RDF>
    </metadata></svg>
