<?xml version="1.0"?>
<svg xmlns="http://www.w3.org/2000/svg" xmlns:xlink="http://www.w3.org/1999/xlink" style="enable-background:new 0 0 128 128;" version="1.1" viewBox="0 0 128 128" xml:space="preserve"><g/><g/><g/><g/><g/><g/><g/><g/><g/><g/><g/><g/><g/><g/><g/><g/><g/><g/><g/><g/><g/><g/><g><g><rect height="6" style="fill:#00B8DF;" width="10" x="47" y="112"/><rect height="6" style="fill:#00B8DF;" width="10" x="37" y="118"/><rect height="6" style="fill:#00B8DF;" width="10" x="47" y="100"/><rect height="6" style="fill:#00B8DF;" width="10" x="37" y="106"/><rect height="6" style="fill:#00B8DF;" width="10" x="47" y="88"/><rect height="6" style="fill:#00B8DF;" width="10" x="37" y="94"/><rect height="6" style="fill:#00B8DF;" width="10" x="47" y="76"/><rect height="6" style="fill:#00B8DF;" width="10" x="37" y="82"/><rect height="6" style="fill:#00B8DF;" width="10" x="47" y="64"/><rect height="6" style="fill:#00B8DF;" width="10" x="37" y="70"/><path d="M56,29H40c-1.1,0-2,0.9-2,2v25c0,1.1,0.9,2,2,2h16c1.1,0,2-0.9,2-2V31C58,29.9,57.1,29,56,29z     M53,45H43V34h10V45z" style="fill:#00B8DF;"/></g><g><path d="M104,80c-13.255,0-24,10.745-24,24s10.745,24,24,24s24-10.745,24-24S117.255,80,104,80z     M114.882,96.988l-0.113,0.176l-8.232,11.438C105.989,109.468,105.029,110,104,110s-1.989-0.532-2.536-1.397l-8.346-11.614    c-0.529-0.926-0.524-2.073,0.01-2.994c0.535-0.922,1.53-1.494,2.596-1.494H100V86c0-1.654,1.346-3,3-3h2c1.654,0,3,1.346,3,3v6.5    h4.276c1.065,0,2.061,0.572,2.596,1.494C115.406,94.915,115.411,96.063,114.882,96.988z" style="fill:#00B8DF;"/><g><polygon points="84,125.95 83.95,126 84,126    " style="fill:#FF9A30;"/><polygon points="114,77 114,76.95 113.95,77    " style="fill:#FF9A30;"/><path d="M111.071,44.243L71.757,4.929C69.869,3.041,67.357,2,64.687,2H24c-5.514,0-10,4.486-10,10v104     c0,5.514,4.486,10,10,10h59.95l-4-4H24c-3.309,0-6-2.691-6-6V12c0-3.309,2.691-6,6-6h40.687c1.603,0,3.109,0.624,4.242,1.757     l39.314,39.314c1.116,1.117,1.757,2.663,1.757,4.242V72.95l4,4V51.313C114,48.643,112.96,46.132,111.071,44.243z" style="fill:#00B8DF;"/><polyline points="113.95,77 114,76.95 110,72.95    " style="fill:#FFFFFF;"/></g></g></g>
	
	<metadata>
		<rdf:RDF xmlns:rdf="http://www.w3.org/1999/02/22-rdf-syntax-ns#" xmlns:rdfs="http://www.w3.org/2000/01/rdf-schema#" xmlns:dc="http://purl.org/dc/elements/1.1/">
			<rdf:Description about="https://iconscout.com/legal#licenses" dc:title="Zip, Download, Archive, Document, File, Rar, Winrar, Winzip" dc:description="Zip, Download, Archive, Document, File, Rar, Winrar, Winzip" dc:publisher="Iconscout" dc:date="2016-12-14" dc:format="image/svg+xml" dc:language="en">
				<dc:creator>
					<rdf:Bag>
						<rdf:li>Igor Verizub</rdf:li>
					</rdf:Bag>
				</dc:creator>
			</rdf:Description>
		</rdf:RDF>
    </metadata></svg>
