<svg viewBox="0 0 900 40" width="100%" height="100%" xmlns="http://www.w3.org/2000/svg" version="1.1">
    <rect x="0" y="0" width="100%" height="100%" fill="#F5FFF5" />
    <path d="M0 31L10.7 29.8C21.3 28.7 42.7 26.3 64.2 26.2C85.7 26 107.3 28 128.8 28.2C150.3 28.3 171.7 26.7 193 25C214.3 23.3 235.7 21.7 257 21.7C278.3 21.7 299.7 23.3 321.2 24.5C342.7 25.7 364.3 26.3 385.8 25.2C407.3 24 428.7 21 450 21.2C471.3 21.3 492.7 24.7 514.2 25.3C535.7 26 557.3 24 578.8 23.7C600.3 23.3 621.7 24.7 643 25.3C664.3 26 685.7 26 707 25.2C728.3 24.3 749.7 22.7 771.2 22.3C792.7 22 814.3 23 835.8 23.8C857.3 24.7 878.7 25.3 889.3 25.7L900 26L900 0L889.3 0C878.7 0 857.3 0 835.8 0C814.3 0 792.7 0 771.2 0C749.7 0 728.3 0 707 0C685.7 0 664.3 0 643 0C621.7 0 600.3 0 578.8 0C557.3 0 535.7 0 514.2 0C492.7 0 471.3 0 450 0C428.7 0 407.3 0 385.8 0C364.3 0 342.7 0 321.2 0C299.7 0 278.3 0 257 0C235.7 0 214.3 0 193 0C171.7 0 150.3 0 128.8 0C107.3 0 85.7 0 64.2 0C42.7 0 21.3 0 10.7 0L0 0Z" fill="#58b386" />
    <path d="M0 12L10.7 13.7C21.3 15.3 42.7 18.7 64.2 19.3C85.7 20 107.3 18 128.8 18C150.3 18 171.7 20 193 20C214.3 20 235.7 18 257 16.8C278.3 15.7 299.7 15.3 321.2 14.7C342.7 14 364.3 13 385.8 13.5C407.3 14 428.7 16 450 16.5C471.3 17 492.7 16 514.2 15.8C535.7 15.7 557.3 16.3 578.8 16.8C600.3 17.3 621.7 17.7 643 18.3C664.3 19 685.7 20 707 19.2C728.3 18.3 749.7 15.7 771.2 14.3C792.7 13 814.3 13 835.8 14C857.3 15 878.7 17 889.3 18L900 19L900 0L889.3 0C878.7 0 857.3 0 835.8 0C814.3 0 792.7 0 771.2 0C749.7 0 728.3 0 707 0C685.7 0 664.3 0 643 0C621.7 0 600.3 0 578.8 0C557.3 0 535.7 0 514.2 0C492.7 0 471.3 0 450 0C428.7 0 407.3 0 385.8 0C364.3 0 342.7 0 321.2 0C299.7 0 278.3 0 257 0C235.7 0 214.3 0 193 0C171.7 0 150.3 0 128.8 0C107.3 0 85.7 0 64.2 0C42.7 0 21.3 0 10.7 0L0 0Z" fill="#439e70" />
    <path d="M0 5L10.7 5.3C21.3 5.7 42.7 6.3 64.2 7.3C85.7 8.3 107.3 9.7 128.8 9.7C150.3 9.7 171.7 8.3 193 7.8C214.3 7.3 235.7 7.7 257 8C278.3 8.3 299.7 8.7 321.2 9.3C342.7 10 364.3 11 385.8 11.7C407.3 12.3 428.7 12.7 450 12.3C471.3 12 492.7 11 514.2 11C535.7 11 557.3 12 578.8 12.7C600.3 13.3 621.7 13.7 643 12.3C664.3 11 685.7 8 707 6.5C728.3 5 749.7 5 771.2 6.3C792.7 7.7 814.3 10.3 835.8 11C857.3 11.7 878.7 10.3 889.3 9.7L900 9L900 0L889.3 0C878.7 0 857.3 0 835.8 0C814.3 0 792.7 0 771.2 0C749.7 0 728.3 0 707 0C685.7 0 664.3 0 643 0C621.7 0 600.3 0 578.8 0C557.3 0 535.7 0 514.2 0C492.7 0 471.3 0 450 0C428.7 0 407.3 0 385.8 0C364.3 0 342.7 0 321.2 0C299.7 0 278.3 0 257 0C235.7 0 214.3 0 193 0C171.7 0 150.3 0 128.8 0C107.3 0 85.7 0 64.2 0C42.7 0 21.3 0 10.7 0L0 0Z" fill="#2d8a5b" />
</svg>