<svg viewBox="0 0 900 40" width="100%" height="100%" xmlns="http://www.w3.org/2000/svg" version="1.1">
    <rect x="0" y="0" width="100%" height="100%" fill="#F5FFF5" />
    <path d="M0 7L10.7 8C21.3 9 42.7 11 64.2 11.7C85.7 12.3 107.3 11.7 128.8 11.3C150.3 11 171.7 11 193 12.3C214.3 13.7 235.7 16.3 257 16.2C278.3 16 299.7 13 321.2 10.8C342.7 8.7 364.3 7.3 385.8 8C407.3 8.7 428.7 11.3 450 11.8C471.3 12.3 492.7 10.7 514.2 11.5C535.7 12.3 557.3 15.7 578.8 15.3C600.3 15 621.7 11 643 8.8C664.3 6.7 685.7 6.3 707 7.8C728.3 9.3 749.7 12.7 771.2 14.3C792.7 16 814.3 16 835.8 14.7C857.3 13.3 878.7 10.7 889.3 9.3L900 8L900 41L889.3 41C878.7 41 857.3 41 835.8 41C814.3 41 792.7 41 771.2 41C749.7 41 728.3 41 707 41C685.7 41 664.3 41 643 41C621.7 41 600.3 41 578.8 41C557.3 41 535.7 41 514.2 41C492.7 41 471.3 41 450 41C428.7 41 407.3 41 385.8 41C364.3 41 342.7 41 321.2 41C299.7 41 278.3 41 257 41C235.7 41 214.3 41 193 41C171.7 41 150.3 41 128.8 41C107.3 41 85.7 41 64.2 41C42.7 41 21.3 41 10.7 41L0 41Z" fill="#58b386" />
    <path d="M0 18L10.7 17.8C21.3 17.7 42.7 17.3 64.2 17.3C85.7 17.3 107.3 17.7 128.8 18.7C150.3 19.7 171.7 21.3 193 22.5C214.3 23.7 235.7 24.3 257 24C278.3 23.7 299.7 22.3 321.2 21C342.7 19.7 364.3 18.3 385.8 19.2C407.3 20 428.7 23 450 24.5C471.3 26 492.7 26 514.2 24.3C535.7 22.7 557.3 19.3 578.8 19.5C600.3 19.7 621.7 23.3 643 24.3C664.3 25.3 685.7 23.7 707 22.2C728.3 20.7 749.7 19.3 771.2 18.5C792.7 17.7 814.3 17.3 835.8 17.2C857.3 17 878.7 17 889.3 17L900 17L900 41L889.3 41C878.7 41 857.3 41 835.8 41C814.3 41 792.7 41 771.2 41C749.7 41 728.3 41 707 41C685.7 41 664.3 41 643 41C621.7 41 600.3 41 578.8 41C557.3 41 535.7 41 514.2 41C492.7 41 471.3 41 450 41C428.7 41 407.3 41 385.8 41C364.3 41 342.7 41 321.2 41C299.7 41 278.3 41 257 41C235.7 41 214.3 41 193 41C171.7 41 150.3 41 128.8 41C107.3 41 85.7 41 64.2 41C42.7 41 21.3 41 10.7 41L0 41Z" fill="#439e70" />
    <path d="M0 32L10.7 31C21.3 30 42.7 28 64.2 28C85.7 28 107.3 30 128.8 29.8C150.3 29.7 171.7 27.3 193 26.7C214.3 26 235.7 27 257 27.3C278.3 27.7 299.7 27.3 321.2 28.3C342.7 29.3 364.3 31.7 385.8 32.2C407.3 32.7 428.7 31.3 450 30C471.3 28.7 492.7 27.3 514.2 27.7C535.7 28 557.3 30 578.8 31.3C600.3 32.7 621.7 33.3 643 33.2C664.3 33 685.7 32 707 31.2C728.3 30.3 749.7 29.7 771.2 29.3C792.7 29 814.3 29 835.8 28.8C857.3 28.7 878.7 28.3 889.3 28.2L900 28L900 41L889.3 41C878.7 41 857.3 41 835.8 41C814.3 41 792.7 41 771.2 41C749.7 41 728.3 41 707 41C685.7 41 664.3 41 643 41C621.7 41 600.3 41 578.8 41C557.3 41 535.7 41 514.2 41C492.7 41 471.3 41 450 41C428.7 41 407.3 41 385.8 41C364.3 41 342.7 41 321.2 41C299.7 41 278.3 41 257 41C235.7 41 214.3 41 193 41C171.7 41 150.3 41 128.8 41C107.3 41 85.7 41 64.2 41C42.7 41 21.3 41 10.7 41L0 41Z" fill="#2d8a5b" />
</svg>